<svg width="1958" height="1958" viewBox="0 0 1958 1958" fill="none" xmlns="http://www.w3.org/2000/svg">
<path d="M304.886 413.861L2.37556 716.753L468.897 1184.68L0 1654.98L301.564 1958L771.405 1487.57L1238.7 1954.64L1541.21 1651.75L304.886 413.861Z" fill="#53B9FF"/>
<path d="M1074.73 1184.68L771.405 1487.57L1238.7 1954.64L1541.21 1651.75L1074.73 1184.68Z" fill="#119EFF"/>
<path d="M1074.73 1184.68L771.405 1487.57L888.166 1603.68L1074.73 1184.68Z" fill="black" fill-opacity="0.2"/>
<path fill-rule="evenodd" clip-rule="evenodd" d="M1488.16 772.379L1958 301.945L1655.36 0L1185.65 469.489L718.319 2.37861L415.809 305.271L1652.14 1543.16L1954.65 1240.27L1488.16 772.379Z" fill="#53B9FF"/>
<path d="M882.327 772.379L1185.65 469.488L718.319 2.3783L415.809 305.271L882.327 772.379Z" fill="#119EFF"/>
<path d="M882.327 772.379L1185.65 469.488L1068.86 353.34L882.327 772.379Z" fill="black" fill-opacity="0.2"/>
</svg>
